<svg aria-hidden="true" style="position: absolute; width: 0; height: 0; overflow: hidden;" version="1.1" xmlns="http://www.w3.org/2000/svg" xmlns:xlink="http://www.w3.org/1999/xlink">
<defs>
  <symbol id="icon-heart-off" viewBox="0 0 32 32">
  <path d="M5.775 16.063l10.225 10.604 10.225-10.604c1.099-1.148 1.775-2.708 1.775-4.426 0-0.007 0-0.013-0-0.019v0.001c0-3.471-2.713-6.285-6.061-6.285-1.685 0.005-3.204 0.71-4.283 1.838l-0.002 0.002-1.653 1.717-1.653-1.717c-1.082-1.13-2.601-1.835-4.284-1.84h-0.001c-3.347 0-6.061 2.813-6.061 6.285 0 1.667 0.639 3.267 1.775 4.444z"></path>
  </symbol>
  <symbol id="icon-heart-on" viewBox="0 0 32 32">
  <path fill="none" stroke="#54adff" style="stroke: var(--color1, #54adff)" stroke-linejoin="round" stroke-linecap="round" stroke-miterlimit="4" stroke-width="2" d="M5.775 16.063l10.225 10.604 10.225-10.604c1.099-1.148 1.775-2.708 1.775-4.426 0-0.007 0-0.013-0-0.019v0.001c0-3.471-2.713-6.285-6.061-6.285-1.685 0.005-3.204 0.71-4.283 1.838l-0.002 0.002-1.653 1.717-1.653-1.717c-1.082-1.13-2.601-1.835-4.284-1.84h-0.001c-3.347 0-6.061 2.813-6.061 6.285 0 1.667 0.639 3.267 1.775 4.444z"></path>
  </symbol>
  <symbol id="icon-trash-2" viewBox="0 0 32 32">
  <path fill="none" stroke="#54adff" style="stroke: var(--color1, #54adff)" stroke-linejoin="round" stroke-linecap="round" stroke-miterlimit="4" stroke-width="2" d="M24 8v16c0 1.473-1.194 2.667-2.667 2.667v0h-10.667c-1.473 0-2.667-1.194-2.667-2.667v0-16M20 8v-1.333c0-1.473-1.194-2.667-2.667-2.667v0h-2.667c-1.473 0-2.667 1.194-2.667 2.667v0 1.333M5.333 8h21.333M13.333 13.333v8M18.667 13.333v8"></path>
  </symbol>
  <symbol id="icon-location-1" viewBox="0 0 32 32">
<path fill="none" stroke="#54adff" style="stroke: var(--color1, #54adff)" stroke-linejoin="round" stroke-linecap="round" stroke-miterlimit="4" stroke-width="1.92" d="M26.57 14.72c0 5.655-4.585 10.24-10.24 12.8-5.655-2.56-10.24-7.145-10.24-12.8s4.585-10.24 10.24-10.24 10.24 4.585 10.24 10.24v0z"></path>
<path fill="none" stroke="#54adff" style="stroke: var(--color1, #54adff)" stroke-linejoin="round" stroke-linecap="round" stroke-miterlimit="4" stroke-width="1.92" d="M20.17 14.72c0 2.121-1.719 3.84-3.84 3.84s-3.84-1.719-3.84-3.84v0c0-2.121 1.719-3.84 3.84-3.84s3.84 1.719 3.84 3.84v0z"></path>
</symbol>
<symbol id="icon-clock" viewBox="0 0 32 32">
<path fill="none" stroke="#54adff" style="stroke: var(--color1, #54adff)" stroke-linejoin="round" stroke-linecap="round" stroke-miterlimit="4" stroke-width="1.92" d="M16.33 9.6v6.4l3.84 3.84M27.85 16c0 6.362-5.158 11.52-11.52 11.52s-11.52-5.158-11.52-11.52v0c0-6.362 5.158-11.52 11.52-11.52s11.52 5.158 11.52 11.52v0z"></path>
</symbol>
<symbol id="icon-female" viewBox="0 0 32 32">
<path fill="none" stroke="#54adff" style="stroke: var(--color1, #54adff)" stroke-linejoin="round" stroke-linecap="round" stroke-miterlimit="4" stroke-width="1.92" d="M16.33 17.28c3.535 0 6.4-2.865 6.4-6.4s-2.865-6.4-6.4-6.4v0c-3.535 0-6.4 2.865-6.4 6.4s2.865 6.4 6.4 6.4v0zM16.33 17.28v10.24M12.49 23.68h7.68"></path>
</symbol>
<symbol id="icon-male" viewBox="0 0 32 32">
<path fill="none" stroke="#54adff" style="stroke: var(--color1, #54adff)" stroke-linejoin="round" stroke-linecap="round" stroke-miterlimit="4" stroke-width="1.92" d="M16.33 14.72c-3.535 0-6.4 2.865-6.4 6.4s2.865 6.4 6.4 6.4v0c3.535 0 6.4-2.865 6.4-6.4s-2.865-6.4-6.4-6.4v0zM16.33 14.72v-10.24M16.33 4.48l5.12 5.12M16.33 4.48l-5.12 5.12"></path>
</symbol>
<symbol id="icon-pawprint" viewBox="0 0 32 32">
<path d="M20.481 19.149c-0.364-2.684-2.056-4.905-4.382-6.004l-0.047-0.020c-0.965-0.463-2.098-0.734-3.294-0.734-1.547 0-2.988 0.453-4.198 1.232l0.031-0.018-5.432 3.439c-0.889 0.566-1.572 1.387-1.952 2.36l-0.012 0.033c-0.21 0.526-0.332 1.135-0.332 1.773 0 0.47 0.066 0.925 0.19 1.355l-0.008-0.035c0.296 1.051 0.903 1.933 1.714 2.565l0.011 0.008c0.841 0.655 1.851 1.013 2.919 1.037l0.069 0.001c2.786 0.087 5.265 1.337 6.978 3.279l0.009 0.011c0.682 0.777 1.598 1.335 2.637 1.563l0.033 0.006c0.313 0.071 0.671 0.112 1.040 0.112 0.74 0 1.441-0.164 2.070-0.458l-0.030 0.013c0.974-0.448 1.756-1.175 2.261-2.078l0.013-0.025c0.517-0.933 0.715-1.987 0.573-3.044l-0.859-6.372zM17.716 28.961c-1.236 0.561-2.667 0.253-3.563-0.767-1.042-1.182-2.306-2.142-3.73-2.818l-0.070-0.030c-1.354-0.647-2.937-1.041-4.609-1.080l-0.014-0-0.047-0.001c-1.352-0.046-2.477-0.968-2.827-2.215l-0.005-0.021c-0.072-0.247-0.114-0.532-0.114-0.825 0-1.080 0.563-2.028 1.411-2.567l0.012-0.007 5.433-3.44c0.895-0.578 1.989-0.922 3.164-0.922 0.908 0 1.769 0.206 2.537 0.573l-0.036-0.015c1.801 0.85 3.086 2.535 3.359 4.543l0.003 0.031 0.857 6.373c0.018 0.125 0.029 0.27 0.029 0.417 0 1.227-0.727 2.284-1.774 2.765l-0.019 0.008zM6.295 12.527c1.104 0.077 2.165-0.345 2.992-1.189 0.787-0.803 1.264-1.901 1.347-3.091 0.080-1.189-0.243-2.343-0.909-3.247-0.703-0.948-1.696-1.513-2.799-1.589-2.216-0.153-4.16 1.767-4.336 4.281-0.137 2.003 0.891 3.787 2.433 4.507 0.395 0.183 0.823 0.297 1.272 0.328zM4.461 7.82c0.103-1.48 1.151-2.62 2.336-2.537 0.213 0.013 0.421 0.069 0.617 0.16 0.303 0.141 0.576 0.369 0.8 0.673 0.404 0.545 0.597 1.256 0.547 2.001-0.052 0.747-0.341 1.423-0.816 1.908-0.435 0.444-0.975 0.668-1.52 0.631-1.185-0.081-2.067-1.353-1.964-2.835zM14.188 11.529c2.349 1.095 5.276-0.191 6.524-2.867 1.248-2.677 0.352-5.747-1.997-6.841-2.348-1.096-5.275 0.191-6.523 2.867-1.248 2.677-0.352 5.747 1.996 6.84zM17.923 3.521c1.412 0.657 1.9 2.608 1.089 4.348-0.811 1.739-2.62 2.617-4.031 1.96-1.412-0.659-1.9-2.609-1.089-4.347 0.811-1.74 2.619-2.62 4.031-1.961zM20.992 16.152c0.305 0.288 0.647 0.517 1.013 0.689 1.713 0.799 3.965 0.331 5.496-1.289 0.88-0.932 1.4-2.109 1.463-3.315 0.067-1.263-0.371-2.405-1.231-3.217-0.859-0.811-2.024-1.184-3.28-1.047-1.201 0.131-2.347 0.715-3.228 1.648-1.859 1.965-1.963 4.896-0.233 6.531zM22.588 10.909c0.576-0.609 1.309-0.989 2.067-1.072 0.701-0.076 1.337 0.119 1.791 0.547 0.453 0.427 0.683 1.052 0.645 1.756-0.040 0.76-0.377 1.515-0.953 2.124-1.147 1.213-2.879 1.451-3.857 0.525-0.977-0.925-0.84-2.667 0.308-3.88zM30.227 19.769c-1.063-1.953-3.727-2.564-5.941-1.363-2.213 1.203-3.151 3.769-2.092 5.72 0.387 0.713 0.987 1.247 1.699 1.58 1.244 0.58 2.833 0.548 4.241-0.216 2.213-1.203 3.152-3.769 2.093-5.721zM27.24 23.843c-1.307 0.708-2.832 0.435-3.397-0.609-0.567-1.044 0.035-2.469 1.339-3.179 0.867-0.471 1.829-0.507 2.545-0.173 0.361 0.168 0.661 0.432 0.852 0.783 0.565 1.044-0.036 2.469-1.34 3.179z"></path>
</symbol>
  

</defs>
</svg>

