<svg width="116" height="20" viewBox="0 0 116 20" fill="none" xmlns="http://www.w3.org/2000/svg">
<path d="M2.53097 18.3488C1.22145 18.1702 0.425316 17.4782 0.142578 16.2729L0.1649 16.0273C0.224423 15.8488 0.291388 15.6479 0.365792 15.4247C0.440197 15.1717 0.522042 14.9262 0.611328 14.6881C0.700614 14.4351 0.849423 14.2119 1.05776 14.0184C1.1024 13.8845 1.18424 13.6836 1.30329 13.4157C1.43722 13.133 1.65299 12.7163 1.95061 12.1657C2.18871 11.7342 2.37472 11.3919 2.50865 11.139C2.65746 10.886 2.77651 10.6925 2.86579 10.5586C2.71698 10.2907 2.50865 10.0303 2.24079 9.77734C2.0027 9.33092 1.79436 8.90681 1.61579 8.50502C1.4521 8.08836 1.32561 7.71633 1.23633 7.38895C1.22145 7.03181 1.16192 6.66722 1.05776 6.2952C1.01311 6.10175 0.968471 5.9083 0.923828 5.71484C0.879185 5.52139 0.856864 5.3205 0.856864 5.11217C0.79734 5.008 0.745257 4.87407 0.700614 4.71038L0.745257 4.44252C0.819661 4.32347 0.834542 4.16722 0.7899 3.97377C0.760138 3.76544 0.715495 3.55711 0.655971 3.34877C0.611328 3.15532 0.566685 2.95443 0.522042 2.74609C0.492281 2.52288 0.48484 2.30711 0.499721 2.09877C0.514602 1.89044 0.566685 1.68955 0.655971 1.49609C0.760138 1.30264 0.931269 1.13895 1.16936 1.00502L1.39258 0.848772L1.61579 0.982701C1.77948 1.08687 1.93573 1.17615 2.08454 1.25056C2.23335 1.32496 2.38216 1.39937 2.53097 1.47377C2.70954 1.56306 2.88811 1.65978 3.06669 1.76395C3.24526 1.85324 3.43871 1.9574 3.64704 2.07645L3.87026 2.2327L3.84794 2.47824C3.84794 2.508 3.85538 2.5452 3.87026 2.58984C3.88514 2.63449 3.90746 2.67169 3.93722 2.70145L4.18276 2.76842L4.20508 3.08092V3.34877C4.20508 3.4827 4.21252 3.57943 4.2274 3.63895C4.24228 3.68359 4.27204 3.73568 4.31669 3.7952L4.42829 4.08538C4.42829 4.35324 4.45061 4.59133 4.49526 4.79967C4.5399 5.008 4.59198 5.21633 4.65151 5.42467C4.72591 5.633 4.78544 5.84877 4.83008 6.07199C4.87472 6.28032 4.88216 6.51097 4.8524 6.76395C4.94169 6.71931 5.03097 6.65234 5.12026 6.56306C5.15002 6.5333 5.17978 6.50353 5.20954 6.47377C5.25419 6.44401 5.29883 6.41425 5.34347 6.38449L6.90597 4.26395L6.86133 3.99609L7.41936 3.46038C7.56817 3.34133 7.70954 3.22228 7.84347 3.10324C7.9774 2.96931 8.08901 2.8205 8.17829 2.65681L8.31222 2.45592C8.98186 1.56306 9.84496 1.01246 10.9015 0.804129L11.281 0.714844L11.3926 1.07199C11.467 1.28032 11.6084 1.46633 11.8167 1.63002C12.0399 1.77883 12.278 1.92764 12.531 2.07645L12.7765 2.2327C12.8658 2.41127 12.9104 2.5452 12.9104 2.63449C12.9104 2.72377 12.903 2.79818 12.8881 2.8577L12.9997 3.14788C12.836 3.57943 12.6575 3.89193 12.464 4.08538C12.2706 4.26395 12.0697 4.43508 11.8613 4.59877C11.6976 4.7327 11.5488 4.86663 11.4149 5.00056C11.281 5.13449 11.1768 5.2833 11.1024 5.44699L10.9238 5.6702C10.5518 5.86365 10.3137 6.14639 10.2095 6.51842L10.1203 6.83092H9.78544C9.77055 6.83092 9.73335 6.86812 9.67383 6.94252C9.6143 7.00205 9.52502 7.1583 9.40597 7.41127C9.27204 7.58984 9.17532 7.70889 9.11579 7.76842C9.07115 7.81306 9.03395 7.85026 9.00419 7.88002C8.97442 7.95443 8.94466 8.02139 8.9149 8.08092C8.90002 8.14044 8.8777 8.21484 8.84794 8.30413L8.71401 8.4827C8.58008 8.60175 8.48335 8.7208 8.42383 8.83984C8.3643 8.94401 8.29734 9.0705 8.22294 9.21931C8.16341 9.35324 8.09645 9.49461 8.02204 9.64342C7.94764 9.77734 7.84347 9.91127 7.70954 10.0452L7.75419 10.2907L7.57561 10.447C7.45657 10.5512 7.3524 10.6851 7.26311 10.8488C7.17383 10.9976 7.08454 11.1538 6.99526 11.3175C6.90597 11.4961 6.80925 11.6747 6.70508 11.8532C6.60091 12.0318 6.46698 12.1955 6.30329 12.3443C6.19913 12.6122 6.1024 12.8205 6.01311 12.9693C5.93871 13.1181 5.80478 13.2967 5.61133 13.505C5.43276 14.2193 5.00865 14.9857 4.33901 15.8041C4.32413 15.9678 4.27204 16.1315 4.18276 16.2952C4.10835 16.444 4.02651 16.5854 3.93722 16.7193C3.90746 16.7788 3.87026 16.8458 3.82561 16.9202C3.79585 16.9797 3.77353 17.0244 3.75865 17.0541L3.69169 17.2997C3.6024 17.4634 3.50567 17.5973 3.40151 17.7015C3.31222 17.8056 3.22294 17.9023 3.13365 17.9916C3.08901 18.0214 3.04436 18.0586 2.99972 18.1032C2.96996 18.1479 2.9402 18.1851 2.91044 18.2148L2.53097 18.3488Z" fill="#303030"/>
<path d="M47.6836 4.91127C47.7134 5.23865 47.7655 5.52139 47.8399 5.75949C47.9143 5.99758 47.9961 6.22824 48.0854 6.45145C48.1598 6.65978 48.2268 6.86812 48.2863 7.07645C48.3607 7.2699 48.4128 7.508 48.4426 7.79074C48.3235 8.17764 48.2342 8.53478 48.1747 8.86217C48.1301 9.18955 48.078 9.53181 48.0185 9.88895C47.7804 10.4098 47.5497 10.8711 47.3265 11.2729C47.1033 11.6747 46.9247 12.0244 46.7908 12.322C46.7164 12.3964 46.6494 12.4857 46.5899 12.5898C46.5453 12.6791 46.4932 12.7759 46.4336 12.88C46.4039 12.9247 46.3667 12.9916 46.322 13.0809C46.2774 13.1702 46.2402 13.2297 46.2104 13.2595L45.764 13.1032L45.6747 13.6613L45.3622 13.7506L45.139 14.0184C44.8563 14.5095 44.5586 14.9262 44.2461 15.2684C43.9336 15.5958 43.5765 15.8934 43.1747 16.1613C42.7878 16.4142 42.3414 16.6523 41.8354 16.8756C41.3444 17.0988 40.7863 17.3443 40.1613 17.6122C39.9084 17.5824 39.6851 17.5675 39.4917 17.5675C39.3131 17.5526 39.142 17.5378 38.9783 17.5229C38.6956 17.5229 38.3459 17.5006 37.9292 17.4559C37.8845 17.3369 37.8176 17.255 37.7283 17.2104C37.639 17.1657 37.5572 17.1434 37.4828 17.1434C37.2298 17.0244 37.0363 16.8532 36.9024 16.63C36.7834 16.3919 36.6643 16.139 36.5453 15.8711C36.4709 15.7074 36.3964 15.5586 36.322 15.4247C36.2476 15.2759 36.1658 15.127 36.0765 14.9782L36.456 14.8666L35.9649 14.3309C35.9351 14.2863 35.8979 14.2491 35.8533 14.2193C35.8087 14.1747 35.7714 14.13 35.7417 14.0854L35.7194 13.7282C35.6747 12.7015 35.6524 11.764 35.6524 10.9157C35.6673 10.0526 35.7863 9.28627 36.0095 8.61663V8.37109C36.0542 8.04371 36.0988 7.77586 36.1435 7.56752C36.1881 7.34431 36.2253 7.13597 36.2551 6.94252C36.2997 6.61514 36.3667 6.31008 36.456 6.02734C36.6643 5.9827 36.8206 5.90086 36.9247 5.78181C37.0289 5.64788 37.1182 5.52883 37.1926 5.42467C37.4009 5.40978 37.5423 5.43955 37.6167 5.51395C37.6911 5.58836 37.7655 5.7074 37.8399 5.87109C37.9143 6.00502 38.0036 6.15383 38.1078 6.31752C38.2268 6.48121 38.3979 6.6077 38.6212 6.69699C38.6509 6.81603 38.6881 6.94252 38.7328 7.07645C38.7923 7.1955 38.8518 7.32943 38.9113 7.47824C39.0304 7.73121 39.1345 7.99907 39.2238 8.28181C39.328 8.54967 39.3875 8.81008 39.4024 9.06306C39.2536 9.3458 39.1345 9.67318 39.0453 10.0452C38.9709 10.4172 38.9188 10.7967 38.889 11.1836C38.8741 11.5556 38.8816 11.9202 38.9113 12.2773C38.956 12.6196 39.0229 12.9098 39.1122 13.1479L39.2462 13.4381L39.6256 13.3934C40.072 13.2744 40.4738 13.1479 40.831 13.014C41.203 12.8651 41.5453 12.694 41.8578 12.5006C42.1703 12.3071 42.4679 12.0839 42.7506 11.8309C43.0333 11.5631 43.331 11.258 43.6435 10.9157C43.956 10.5735 44.2238 10.1866 44.447 9.75502C44.6851 9.30859 44.8786 8.84728 45.0274 8.37109C45.1911 7.8949 45.3101 7.42615 45.3845 6.96484C45.4738 6.48865 45.5333 6.04222 45.5631 5.62556C45.8161 5.53627 45.9426 5.3577 45.9426 5.08984L45.8979 4.84431C45.8384 4.75502 45.8384 4.65086 45.8979 4.53181C45.9872 4.24907 46.1956 4.0333 46.5229 3.88449C46.761 4.0333 46.9694 4.19699 47.1479 4.37556C47.3414 4.55413 47.52 4.7327 47.6836 4.91127Z" fill="#303030"/>
<path d="M52.3926 15.2907C52.2289 15.886 52.0801 16.3398 51.9462 16.6523C51.8271 16.95 51.6411 17.2625 51.3881 17.5898C51.1947 17.5601 51.0607 17.5824 50.9863 17.6568C50.9119 17.7312 50.8301 17.7982 50.7408 17.8577C50.6069 17.8875 50.5101 17.8875 50.4506 17.8577C50.3911 17.8279 50.339 17.7907 50.2944 17.7461C50.2497 17.7163 50.1902 17.6791 50.1158 17.6345C50.0563 17.6047 49.9595 17.5898 49.8256 17.5898C49.7959 17.4708 49.7587 17.3592 49.714 17.255C49.6842 17.1509 49.5875 17.1137 49.4238 17.1434C49.4536 17.0244 49.461 16.9276 49.4462 16.8532C49.4313 16.764 49.409 16.6895 49.3792 16.63C49.3643 16.5556 49.3494 16.4887 49.3345 16.4291C49.3197 16.3547 49.3271 16.2654 49.3569 16.1613C49.2825 16.1613 49.2229 16.1092 49.1783 16.005C49.1337 15.9009 49.0816 15.7967 49.022 15.6925C49.0667 15.4247 49.1113 15.1717 49.156 14.9336C49.2006 14.6955 49.2527 14.4723 49.3122 14.264C49.3866 14.0556 49.4462 13.8473 49.4908 13.639C49.5354 13.4306 49.5131 13.2148 49.4238 12.9916C49.4834 13.0363 49.528 13.0288 49.5578 12.9693C49.5875 12.8949 49.6098 12.8056 49.6247 12.7015C49.6396 12.5824 49.647 12.4708 49.647 12.3666C49.647 12.2476 49.6396 12.1509 49.6247 12.0765C49.7735 11.6895 49.8926 11.2952 49.9819 10.8934C50.086 10.4767 50.1753 10.0675 50.2497 9.66574C50.339 9.26395 50.4283 8.86961 50.5176 8.4827C50.6069 8.0958 50.7259 7.73865 50.8747 7.41127C51.0384 7.38151 51.217 7.40383 51.4104 7.47824C51.6188 7.53776 51.7453 7.61961 51.7899 7.72377C52.1768 7.42615 52.5191 7.06901 52.8167 6.65234C53.1143 6.2208 53.4194 5.80413 53.7319 5.40234C54.0444 5.00056 54.3866 4.64342 54.7587 4.33092C55.1456 4.01842 55.6292 3.8324 56.2095 3.77288C56.5072 3.99609 56.8345 4.22675 57.1917 4.46484C57.5637 4.68806 57.8688 4.98568 58.1069 5.3577C58.2259 5.41722 58.3226 5.48419 58.397 5.55859C58.4863 5.61812 58.5905 5.68508 58.7095 5.75949V6.02734C58.8881 6.19103 59.0295 6.38449 59.1337 6.6077C59.2527 6.81603 59.3569 7.04669 59.4462 7.29967C59.5354 7.53776 59.6247 7.7833 59.714 8.03627C59.8033 8.27437 59.9075 8.50502 60.0265 8.72824C59.9967 8.80264 59.9819 8.86961 59.9819 8.92913C59.9819 8.97377 59.9893 9.02586 60.0042 9.08538C60.034 9.1449 60.0563 9.20443 60.0712 9.26395C60.086 9.32347 60.086 9.40532 60.0712 9.50949C60.0265 10.1642 59.8107 10.6925 59.4238 11.0943C59.0518 11.4961 58.5979 11.8309 58.0622 12.0988C57.5265 12.3517 56.9536 12.5675 56.3435 12.7461C55.7334 12.9247 55.1828 13.1181 54.6917 13.3265C54.6917 13.386 54.714 13.4157 54.7587 13.4157C54.8182 13.4157 54.8405 13.4529 54.8256 13.5273C55.1828 13.7506 55.4655 13.9291 55.6738 14.0631C55.8822 14.197 56.0756 14.3086 56.2542 14.3979C56.4476 14.4872 56.6485 14.569 56.8569 14.6434C57.0801 14.7029 57.3851 14.7773 57.772 14.8666C58.159 14.9559 58.4566 15.0303 58.6649 15.0898C58.8881 15.1345 59.089 15.1791 59.2676 15.2238C59.4462 15.2535 59.6247 15.2833 59.8033 15.3131C59.9967 15.3279 60.2646 15.3503 60.6069 15.38C60.7408 15.514 60.8524 15.6776 60.9417 15.8711C61.0459 16.0497 61.1128 16.2357 61.1426 16.4291C61.1723 16.6077 61.1798 16.7863 61.1649 16.9648C61.15 17.1285 61.0979 17.2625 61.0087 17.3666C61.0235 17.4113 61.0533 17.4336 61.0979 17.4336C61.1575 17.4187 61.217 17.4187 61.2765 17.4336C61.1872 17.4931 61.1128 17.5675 61.0533 17.6568C60.9938 17.7461 60.9342 17.8354 60.8747 17.9247C60.8152 18.014 60.7482 18.0884 60.6738 18.1479C60.5994 18.2223 60.4953 18.2669 60.3613 18.2818C59.9 18.4604 59.3197 18.4678 58.6203 18.3041C57.9209 18.1553 57.0354 17.8726 55.964 17.4559C55.4283 17.2476 54.9893 17.069 54.647 16.9202C54.3197 16.7565 54.0295 16.6003 53.7765 16.4515C53.5384 16.2878 53.3152 16.1166 53.1069 15.9381C52.9134 15.7595 52.6753 15.5437 52.3926 15.2907ZM55.5845 7.63449C55.4209 7.87258 55.2348 8.08836 55.0265 8.28181C54.8331 8.47526 54.6396 8.67615 54.4462 8.88449C54.2676 9.07794 54.1039 9.30115 53.9551 9.55413C53.8063 9.79222 53.7021 10.075 53.6426 10.4023C54.1634 10.3428 54.7066 10.2015 55.272 9.97824C55.8375 9.74014 56.3732 9.51693 56.8792 9.30859C56.8197 8.84728 56.656 8.47526 56.3881 8.19252C56.1351 7.90978 55.8673 7.72377 55.5845 7.63449Z" fill="#303030"/>
<path d="M71.9392 11.785C71.9553 11.7208 71.9874 11.6968 72.0355 11.7128C72.0997 11.7128 72.1558 11.7048 72.204 11.6888C72.0756 11.5604 71.9954 11.3919 71.9633 11.1834C71.9312 10.9588 71.851 10.7743 71.7227 10.6299C71.7547 10.5497 71.7788 10.4694 71.7949 10.3892C71.8269 10.309 71.8991 10.2769 72.0114 10.293C71.9633 9.94001 71.9713 9.61112 72.0355 9.30629C72.0997 9.00146 72.1959 8.71268 72.3243 8.43994C72.4687 8.1672 72.6291 7.90248 72.8056 7.64579C72.9981 7.37305 73.1826 7.10031 73.3591 6.82757C73.5035 6.79548 73.5917 6.81152 73.6238 6.8757C73.6559 6.92383 73.7121 6.90778 73.7923 6.82757C74.049 6.65109 74.2254 6.45857 74.3217 6.25C74.418 6.02539 74.4661 5.78474 74.4661 5.52804C74.6105 5.11091 74.7709 4.7018 74.9474 4.30071C75.1399 3.88358 75.3565 3.49853 75.5972 3.14558C75.8378 2.79262 76.0945 2.48779 76.3673 2.2311C76.64 1.95836 76.9368 1.74979 77.2577 1.6054C77.4823 1.41288 77.763 1.2364 78.1 1.07596C78.4529 0.915527 78.8219 0.795201 79.207 0.714983C79.608 0.618722 80.0172 0.570592 80.4343 0.570592C80.8514 0.554548 81.2365 0.594657 81.5894 0.690918C81.6696 0.723005 81.7178 0.706961 81.7338 0.642787C81.7499 0.56257 81.79 0.522461 81.8541 0.522461C82.6563 0.618722 83.3703 0.779157 83.996 1.00377C84.6377 1.22838 85.1832 1.54122 85.6324 1.94231C85.9372 2.42362 86.226 2.94503 86.4987 3.50656C86.7715 4.05204 86.98 4.6296 87.1244 5.23926C87.2849 5.83287 87.3571 6.45054 87.341 7.09228C87.325 7.73403 87.1886 8.37577 86.9319 9.01751C86.3704 9.72342 85.6885 10.293 84.8864 10.7261C84.0842 11.1433 83.2178 11.4962 82.2873 11.785C81.3728 12.0578 80.4182 12.2824 79.4235 12.4588C78.4449 12.6353 77.4903 12.8278 76.5598 13.0364C76.5758 13.4696 76.5758 13.9348 76.5598 14.4322C76.5437 14.9135 76.4876 15.4028 76.3913 15.9002C76.3111 16.3815 76.1828 16.8548 76.0063 17.32C75.8458 17.7853 75.6212 18.2185 75.3324 18.6196C75.0116 18.6035 74.6747 18.6356 74.3217 18.7158C73.9848 18.796 73.68 18.8763 73.4072 18.9565C73.2789 18.8763 73.1505 18.796 73.0222 18.7158C72.9099 18.6516 72.7655 18.6115 72.589 18.5955C72.6371 18.403 72.589 18.2024 72.4446 17.9939C72.3163 17.7853 72.1799 17.5848 72.0355 17.3922C71.9072 17.1837 71.8189 16.9831 71.7708 16.7906C71.7387 16.582 71.835 16.3975 72.0596 16.2371C71.9312 16.1248 71.867 15.9483 71.867 15.7077C71.9312 15.7718 72.0114 15.8039 72.1077 15.8039C72.0756 15.5151 72.1077 15.1702 72.204 14.7691C72.3163 14.368 72.4045 13.975 72.4687 13.5899C72.5489 13.1888 72.5649 12.8278 72.5168 12.507C72.4687 12.1701 72.2762 11.9294 71.9392 11.785ZM78.1962 6.15374C78.132 6.33022 78.0759 6.49065 78.0278 6.63504C77.9957 6.76339 77.9556 6.88372 77.9074 6.99602C77.8593 7.10833 77.8032 7.22063 77.739 7.33294C77.6908 7.44524 77.6347 7.57359 77.5705 7.71798C77.6026 7.81424 77.6668 7.88644 77.763 7.93457C77.8593 7.9827 77.9235 8.0549 77.9556 8.15116C78.1802 8.03885 78.4048 7.95864 78.6294 7.9105C78.854 7.84633 79.0786 7.7982 79.3032 7.76611C79.5278 7.73403 79.7524 7.69392 79.977 7.64579C80.2017 7.59766 80.4343 7.51744 80.6749 7.40513C80.9156 7.29283 81.1643 7.20459 81.421 7.14042C81.6937 7.0602 81.9584 6.97998 82.2151 6.89976C82.4718 6.81954 82.7205 6.73131 82.9611 6.63504C83.2018 6.52274 83.4104 6.37835 83.5868 6.20187C83.3622 5.9933 83.0253 5.8088 82.5761 5.64837C82.1269 5.48793 81.6376 5.39167 81.1081 5.35958C80.5947 5.31145 80.0733 5.34354 79.5439 5.45585C79.0305 5.56815 78.5813 5.80078 78.1962 6.15374Z" fill="#303030"/>
<path d="M100.048 5.02267C100.064 5.13497 100.064 5.22321 100.048 5.28739C100.048 5.33552 100.039 5.38365 100.023 5.43178C100.023 5.47991 100.023 5.53606 100.023 5.60024C100.023 5.64837 100.039 5.72859 100.072 5.84089C99.7347 6.38637 99.3416 6.76339 98.8924 6.97196C98.4592 7.16448 97.9859 7.30887 97.4725 7.40513C96.9591 7.48535 96.4297 7.57359 95.8842 7.66985C95.3548 7.76611 94.8253 7.97468 94.2959 8.29555C94.0873 8.21533 93.8948 8.21533 93.7183 8.29555C93.5579 8.37577 93.3172 8.39983 92.9964 8.36774C92.9001 8.46401 92.7798 8.5362 92.6354 8.58433C92.491 8.61642 92.3466 8.65653 92.2022 8.70466C92.2664 8.84905 92.2905 9.00146 92.2744 9.1619C92.2744 9.30629 92.2985 9.42662 92.3466 9.52288C92.9081 9.57101 93.5258 9.56299 94.1996 9.49881C94.8895 9.43464 95.5633 9.39453 96.2211 9.37849C96.2372 9.4587 96.2291 9.51486 96.1971 9.54694C96.165 9.56299 96.1569 9.6031 96.173 9.66727C96.2853 9.74749 96.3976 9.85177 96.5099 9.98012C96.6222 10.0924 96.7345 10.2047 96.8468 10.317C96.9591 10.4293 97.0714 10.5256 97.1837 10.6058C97.3121 10.67 97.4565 10.6941 97.6169 10.678C97.6811 10.8064 97.7212 10.9508 97.7372 11.1112C97.7693 11.2556 97.7533 11.408 97.6891 11.5684C97.4324 11.7449 97.1757 11.9294 96.919 12.1219C96.6623 12.2984 96.3896 12.4588 96.1008 12.6032C95.8281 12.7476 95.5312 12.868 95.2104 12.9642C94.9056 13.0444 94.5606 13.0765 94.1756 13.0605C94.0954 13.0605 94.0312 13.0605 93.983 13.0605C93.951 13.0605 93.9028 13.0364 93.8387 12.9883C93.7103 13.0685 93.5258 13.0926 93.2852 13.0605C93.0605 13.0284 92.8841 13.0525 92.7557 13.1327C92.5792 13.0525 92.3627 13.0204 92.106 13.0364C91.8653 13.0364 91.6487 13.0043 91.4562 12.9402C91.1995 13.2771 90.9669 13.638 90.7583 14.0231C90.5497 14.4081 90.3652 14.8172 90.2048 15.2504C90.7503 15.3306 91.1995 15.3627 91.5525 15.3467C91.9215 15.3306 92.2664 15.3066 92.5873 15.2745C92.9081 15.2264 93.237 15.1862 93.5739 15.1542C93.9109 15.106 94.336 15.09 94.8494 15.106C95.1703 14.9295 95.5473 14.8172 95.9805 14.7691C96.4297 14.7049 96.8388 14.6087 97.2078 14.4803C97.3361 14.5285 97.4485 14.6167 97.5447 14.745C97.641 14.8574 97.7292 14.9697 97.8094 15.082C97.9057 15.1782 98.002 15.2665 98.0982 15.3467C98.1945 15.4269 98.3148 15.459 98.4592 15.4429C98.5234 15.5071 98.5635 15.5873 98.5795 15.6836C98.6116 15.7638 98.6357 15.844 98.6517 15.9242C98.6678 16.0045 98.6918 16.0767 98.7239 16.1408C98.772 16.189 98.8442 16.205 98.9405 16.189C98.6998 16.7184 98.4191 17.1275 98.0982 17.4163C97.7934 17.689 97.4404 17.8976 97.0393 18.042C96.6383 18.1864 96.189 18.2987 95.6917 18.3789C95.2104 18.4591 94.6729 18.5554 94.0793 18.6677C93.9349 18.6998 93.8146 18.6918 93.7183 18.6436C93.6221 18.6115 93.5098 18.5955 93.3814 18.5955C93.0124 18.6757 92.5712 18.7479 92.0578 18.8121C91.5444 18.8763 91.023 18.9003 90.4936 18.8843C89.9641 18.8682 89.4588 18.796 88.9775 18.6677C88.4962 18.5554 88.1031 18.3468 87.7983 18.042C87.6699 17.9297 87.5817 17.8013 87.5336 17.6569C87.5015 17.4965 87.3972 17.3762 87.2207 17.296C87.2047 17.0874 87.1726 16.8548 87.1244 16.5981C87.0763 16.3414 87.0282 16.0767 86.98 15.8039C86.9319 15.5151 86.8918 15.2344 86.8597 14.9616C86.8437 14.6889 86.8597 14.4402 86.9079 14.2156C86.956 13.975 87.0522 13.7584 87.1966 13.5658C87.3571 13.3733 87.4132 13.1648 87.3651 12.9402C87.4453 12.9241 87.4934 12.884 87.5095 12.8198C87.5255 12.7396 87.5897 12.7075 87.702 12.7236C87.7983 12.4348 87.9026 12.162 88.0149 11.9053C88.1272 11.6486 88.2395 11.4 88.3518 11.1593C88.4801 10.9187 88.6004 10.678 88.7127 10.4374C88.8411 10.1807 88.9614 9.8999 89.0737 9.59507C88.8491 9.38651 88.6807 9.1619 88.5684 8.92125C88.4721 8.66455 88.3999 8.41588 88.3518 8.17522C88.3036 7.91853 88.2635 7.66183 88.2314 7.40513C88.1994 7.13239 88.1432 6.85965 88.063 6.58691C88.2234 6.34626 88.4159 6.15374 88.6406 6.00935C88.8812 5.84891 89.1379 5.72056 89.4106 5.6243C89.6834 5.52804 89.9802 5.44782 90.3011 5.38365C90.6219 5.31948 90.9588 5.24728 91.3118 5.16706C91.9535 4.9585 92.5231 4.79806 93.0204 4.68576C93.5338 4.57345 94.0312 4.48521 94.5125 4.42104C95.0098 4.34082 95.5232 4.26862 96.0527 4.20445C96.5821 4.14028 97.1837 4.04401 97.8576 3.91567C98.002 4.06006 98.1383 4.13225 98.2667 4.13225C98.3308 3.98786 98.403 3.94775 98.4833 4.01193C98.5795 4.06006 98.6196 4.01193 98.6036 3.86754C98.764 4.14028 98.9646 4.37291 99.2052 4.56543C99.4619 4.74191 99.7427 4.89432 100.048 5.02267Z" fill="#303030"/>
<path d="M113.163 6.99602C112.762 6.99602 112.329 7.02811 111.864 7.09228C111.398 7.14042 110.941 7.19657 110.492 7.26074C110.171 7.30887 109.858 7.34898 109.553 7.38107C109.265 7.41316 109 7.43722 108.759 7.45326C108.647 7.80622 108.535 8.11907 108.422 8.39181C108.31 8.66455 108.19 8.92927 108.061 9.18596C107.933 9.4587 107.813 9.73947 107.7 10.0282C107.604 10.301 107.508 10.5978 107.411 10.9187C107.251 11.1754 107.115 11.416 107.002 11.6406C106.906 11.8492 106.826 12.0898 106.762 12.3626C106.569 12.6032 106.425 12.8599 106.329 13.1327C106.232 13.3894 106.16 13.614 106.112 13.8065L106.016 14.0953C105.919 14.1915 105.863 14.2718 105.847 14.3359C105.831 14.3841 105.791 14.4322 105.727 14.4803C105.711 14.6568 105.655 14.8333 105.558 15.0098C105.526 15.09 105.502 15.1702 105.486 15.2504C105.47 15.3146 105.462 15.3627 105.462 15.3948C105.462 15.5552 105.422 15.6595 105.342 15.7077C105.358 15.7879 105.358 15.8761 105.342 15.9724C105.326 16.0526 105.31 16.1328 105.294 16.213C105.246 16.4056 105.23 16.558 105.246 16.6703C105.294 16.7344 105.334 16.7906 105.366 16.8387C105.414 16.8869 105.446 16.951 105.462 17.0312C105.558 17.0954 105.631 17.1355 105.679 17.1516C105.743 17.1997 105.839 17.2559 105.968 17.32L106.184 17.5607C106.264 18.0259 106.192 18.3949 105.968 18.6677C105.727 18.9725 105.318 19.1249 104.74 19.1249H104.451C104.371 19.0447 104.323 18.9805 104.307 18.9324C104.179 18.8843 104.074 18.8442 103.994 18.8121C103.914 18.78 103.842 18.7158 103.778 18.6196C103.569 18.5233 103.401 18.4431 103.272 18.3789L103.056 18.2586C103.056 18.0821 103.056 17.9858 103.056 17.9698C102.943 17.8254 102.855 17.665 102.791 17.4885C102.743 17.312 102.703 17.1355 102.671 16.9591C102.639 16.8147 102.598 16.6783 102.55 16.5499C102.518 16.4216 102.47 16.3093 102.406 16.213C102.374 15.2825 102.462 14.4964 102.671 13.8546C102.879 13.2129 103.096 12.5952 103.32 12.0016C103.449 11.6807 103.577 11.3599 103.705 11.039C103.834 10.7021 103.946 10.3571 104.042 10.0042L104.259 9.76353C104.371 9.50683 104.459 9.29827 104.524 9.13783C104.604 8.96136 104.684 8.78488 104.764 8.6084C104.812 8.49609 104.853 8.39181 104.885 8.29555C104.933 8.18324 104.973 8.08698 105.005 8.00677C104.909 8.00677 104.82 8.01479 104.74 8.03083C104.66 8.03083 104.58 8.03885 104.5 8.0549C104.403 8.07094 104.315 8.08698 104.235 8.10303C104.155 8.10303 104.074 8.10303 103.994 8.10303C103.882 8.10303 103.802 8.09501 103.754 8.07896C103.577 8.15918 103.385 8.19929 103.176 8.19929H102.935C102.887 8.19929 102.839 8.19929 102.791 8.19929C102.759 8.18324 102.727 8.17522 102.695 8.17522C102.534 8.17522 102.406 8.19929 102.31 8.24742C102.117 8.24742 101.933 8.24742 101.756 8.24742H101.515C101.483 8.24742 101.443 8.25544 101.395 8.27148C101.347 8.27148 101.307 8.27148 101.275 8.27148C101.163 8.27148 101.042 8.26346 100.914 8.24742C100.786 8.21533 100.649 8.15918 100.505 8.07896C100.312 7.82227 100.184 7.6859 100.12 7.66985L99.9031 7.38107C99.8871 7.28481 99.863 7.19657 99.8309 7.11635C99.7988 7.02009 99.7667 6.91581 99.7347 6.8035C99.6705 6.64307 99.6063 6.47461 99.5421 6.29813C99.494 6.10561 99.4699 5.881 99.4699 5.6243C99.486 5.49595 99.5181 5.39969 99.5662 5.33552C99.6143 5.27134 99.6544 5.21519 99.6865 5.16706L99.7587 4.80608L100.072 4.83015H100.745C101.259 4.83015 101.78 4.8141 102.31 4.78202C102.839 4.73389 103.385 4.68576 103.946 4.63763C104.267 4.60554 104.588 4.57345 104.909 4.54136C105.246 4.50928 105.591 4.47719 105.943 4.4451C106.008 4.30071 106.072 4.16434 106.136 4.03599L106.377 3.91567C106.665 3.89962 106.866 3.93973 106.978 4.03599C107.107 4.11621 107.211 4.19643 107.291 4.27665C107.644 4.24456 107.997 4.21247 108.35 4.18038C108.719 4.13225 109.088 4.0761 109.457 4.01193C110.003 3.93171 110.548 3.85951 111.093 3.79534C111.655 3.73117 112.192 3.69908 112.706 3.69908C112.93 3.69908 113.147 3.7071 113.356 3.72314C113.564 3.73919 113.757 3.76325 113.933 3.79534L114.174 3.9638C114.222 4.06006 114.286 4.1483 114.366 4.22852C114.463 4.30873 114.559 4.38895 114.655 4.46917C114.848 4.64565 115.04 4.85421 115.233 5.09487C115.425 5.33552 115.497 5.68848 115.449 6.15374C115.321 6.34626 115.225 6.45857 115.161 6.49065L114.944 6.77944L114.703 6.75537C114.607 6.75537 114.519 6.77141 114.439 6.8035C114.358 6.81954 114.278 6.84361 114.198 6.8757C114.134 6.90778 114.07 6.93987 114.005 6.97196C113.941 6.988 113.869 7.00405 113.789 7.02009C113.644 7.02009 113.524 7.02009 113.428 7.02009C113.348 7.00405 113.259 6.99602 113.163 6.99602Z" fill="#303030"/>
<path fill-rule="evenodd" clip-rule="evenodd" d="M21.8923 7.84429C23.2555 8.47998 24.9539 7.73358 25.6781 6.18041L25.7151 6.10103C26.4175 4.59579 26.8319 3.70778 25.4921 3.08299C25.1697 2.93982 24.8102 2.82335 24.4362 2.74196L24.42 2.72578L24.3842 2.7309C22.9434 2.43097 21.303 2.65394 20.7337 3.87479C20.0094 5.42795 20.5292 7.20866 21.8923 7.84429ZM21.5985 4.65021C22.0197 4.46613 22.6031 4.36236 23.3486 4.51146C23.99 4.63973 24.5114 4.62884 24.9128 4.55634C24.9413 4.9297 24.8717 5.33401 24.6915 5.72035C24.221 6.72943 23.1715 7.23967 22.3524 6.85769C21.6177 6.51513 21.3139 5.56953 21.5985 4.65021Z" fill="#FFC107"/>
<path fill-rule="evenodd" clip-rule="evenodd" d="M18.4879 7.28807C18.0086 7.77791 17.3921 8.02308 16.7519 7.97845C16.5441 7.96418 16.0829 7.73398 15.7875 7.58657C15.7113 7.54853 15.6461 7.51599 15.5992 7.49411C14.7035 7.07645 14.5219 6.33479 14.6015 5.17248C14.7031 3.71296 15.8319 2.59874 17.1179 2.68798C17.7198 2.72923 18.0415 3.16682 18.4169 3.67751L18.4174 3.67817C18.4407 3.70985 18.4642 3.7418 18.4879 3.77396C18.5257 3.82511 18.564 3.87608 18.6023 3.92705C18.9568 4.39879 19.3118 4.87124 19.2691 5.49425C19.2214 6.18491 18.9439 6.82187 18.4879 7.28807ZM17.043 3.77397C16.3553 3.72627 15.7474 4.38735 15.6874 5.2474C15.6287 6.10722 16.1405 6.84535 16.8275 6.89244C17.144 6.91447 17.4574 6.78452 17.7097 6.52667C17.985 6.24531 18.1531 5.85214 18.183 5.41946C18.2127 4.98697 18.1001 4.57428 17.866 4.25765C17.7359 4.08143 17.577 3.94904 17.4016 3.86724C17.288 3.81425 17.1672 3.7825 17.043 3.77397Z" fill="#FFC107"/>
<path fill-rule="evenodd" clip-rule="evenodd" d="M23.0205 8.91464C24.4238 9.56901 25.3847 10.876 25.5911 12.4107L26.0886 16.1087C26.1711 16.7224 26.0563 17.3332 25.7567 17.8753C25.4571 18.4172 25.0007 18.8393 24.4371 19.0958C23.8732 19.3522 23.2552 19.4189 22.6498 19.2887C22.4366 19.2427 22.2318 19.174 22.0384 19.0838C21.6827 18.9179 21.3647 18.6796 21.1002 18.3782C20.0747 17.2093 18.5989 16.515 17.0457 16.4694L17.0052 16.4687C16.386 16.4549 15.8002 16.2466 15.3113 15.8665C14.8224 15.4863 14.4763 14.97 14.3104 14.3733C14.1448 13.7766 14.1749 13.1559 14.3976 12.5781C14.6202 12.0005 15.0144 11.52 15.5374 11.1887L18.6901 9.1927C19.9983 8.36428 21.6173 8.26033 23.0205 8.91464ZM24.9352 15.7005C23.2233 15.0203 20.6949 14.5175 20.4885 16.4337C20.2393 16.2747 19.98 16.1324 19.7125 16.0076C18.8791 15.619 17.9657 15.4009 17.0302 15.3802L17.0035 15.3796C16.227 15.3515 15.5681 14.8327 15.3593 14.082C15.1654 13.3832 15.4089 12.6557 15.9681 12.2157C16.3723 11.9302 17.0388 11.8072 18.3489 12.3686C20.3489 13.2258 20.3727 12.0115 19.7775 11.2972C20.4917 11.2972 21.9915 11.0829 22.2775 10.2258C22.3321 10.0619 22.3441 9.92158 22.3245 9.80172C22.4039 9.83188 22.4826 9.86509 22.5604 9.90137C23.6258 10.3982 24.3555 11.3905 24.5123 12.5558L24.9352 15.7005Z" fill="#FFC107"/>
<path fill-rule="evenodd" clip-rule="evenodd" d="M27.2606 10.9658C27.0476 10.8664 26.849 10.7333 26.6718 10.566C25.668 9.61701 25.7288 7.9166 26.8073 6.77548C27.3184 6.23444 27.9835 5.89488 28.6803 5.81911C29.1607 5.76695 29.2679 5.94147 29.4276 6.20128C29.5104 6.33595 29.6072 6.49354 29.7775 6.65435C29.9205 6.78964 30.1099 6.92198 30.3064 7.05924C30.7943 7.40016 31.3257 7.77145 31.2986 8.29371C31.2624 8.99363 30.9608 9.67702 30.4494 10.2179C29.5611 11.1575 28.2548 11.4294 27.2606 10.9658ZM28.798 6.90143C28.3581 6.94926 27.9322 7.16996 27.5985 7.52321C26.9323 8.22811 26.7798 9.58388 27.3473 10.1206C27.9154 10.6573 28.8239 10.4683 29.4902 9.76341C29.8242 9.41028 30.1886 8.67908 30.2115 8.23733C30.2327 7.82853 30.0997 7.46667 29.8369 7.21813C29.574 6.96967 29.205 6.85716 28.798 6.90143Z" fill="#FFC107"/>
<path fill-rule="evenodd" clip-rule="evenodd" d="M31.0591 12.8351C30.2909 11.6544 28.9195 11.6715 27.6347 12.3687C26.3504 13.0668 25.9712 14.1672 26.5858 15.2999C26.8099 15.7132 27.1579 16.023 27.5719 16.2161C28.2934 16.5525 29.2159 16.5343 30.0334 16.091C31.3177 15.3929 31.6737 13.9681 31.0591 12.8351ZM29.5142 15.1342C28.7557 15.5455 27.8714 15.3869 27.5427 14.7807C27.3018 14.3369 27.4249 13.7737 27.8058 13.3426C28.576 13.2115 29.5503 13.091 30.186 13.1331C30.2255 13.1815 30.2608 13.2338 30.2913 13.29C30.6194 13.8957 30.2706 14.723 29.5142 15.1342Z" fill="#FFC107"/>
</svg>
