<svg width="16" height="16" viewBox="0 0 16 16" fill="none" xmlns="http://www.w3.org/2000/svg">
<path d="M1 11.7059L0.46967 11.1756C0.329018 11.3162 0.25 11.507 0.25 11.7059H1ZM11.7059 1L12.2362 0.46967C11.9433 0.176777 11.4684 0.176777 11.1756 0.46967L11.7059 1ZM15 4.29412L15.5303 4.82445C15.8232 4.53155 15.8232 4.05668 15.5303 3.76379L15 4.29412ZM4.29412 15V15.75C4.49303 15.75 4.6838 15.671 4.82445 15.5303L4.29412 15ZM1 15H0.25C0.25 15.4142 0.585786 15.75 1 15.75L1 15ZM7.58824 14.25C7.17402 14.25 6.83824 14.5858 6.83824 15C6.83824 15.4142 7.17402 15.75 7.58824 15.75V14.25ZM14.5882 15.75C15.0024 15.75 15.3382 15.4142 15.3382 15C15.3382 14.5858 15.0024 14.25 14.5882 14.25V15.75ZM1.53033 12.2362L12.2362 1.53033L11.1756 0.46967L0.46967 11.1756L1.53033 12.2362ZM11.1756 1.53033L14.4697 4.82445L15.5303 3.76379L12.2362 0.46967L11.1756 1.53033ZM14.4697 3.76379L3.76379 14.4697L4.82445 15.5303L15.5303 4.82445L14.4697 3.76379ZM4.29412 14.25H1V15.75H4.29412V14.25ZM1.75 15V11.7059H0.25V15H1.75ZM8.70496 4.00092L11.9991 7.29504L13.0597 6.23438L9.76562 2.94026L8.70496 4.00092ZM7.58824 15.75H14.5882V14.25H7.58824V15.75Z" fill="#54ADFF"/>
</svg>
