<svg width="24" height="24" viewBox="0 0 24 24" fill="none" xmlns="http://www.w3.org/2000/svg">
<g clip-path="url(#clip0_45907_844)">
<path d="M15.3613 14.3614C15.0946 12.378 13.8528 10.689 12.0393 9.84335C10.2259 8.99778 8.13364 9.13211 6.44302 10.2027L2.36887 12.7822C1.69287 13.2102 1.18351 13.8312 0.895812 14.5777C0.608038 15.3244 0.569171 16.1265 0.783156 16.8976C0.997551 17.6688 1.44487 18.336 2.07661 18.8273C2.70843 19.3185 3.46541 19.5877 4.26566 19.6055L4.31795 19.6064C6.32515 19.6654 8.23238 20.5626 9.55763 22.0732C9.89947 22.4627 10.3104 22.7707 10.7701 22.985C11.02 23.1016 11.2847 23.1904 11.5602 23.2498C12.3426 23.4181 13.1413 23.3319 13.87 23.0005C14.5983 22.669 15.1881 22.1235 15.5753 21.4232C15.9625 20.7227 16.1108 19.9334 16.0042 19.1402L15.3613 14.3614ZM13.2874 21.7199C12.3605 22.1415 11.2867 21.9107 10.6152 21.1454C9.81708 20.2356 8.84232 19.5124 7.76431 19.0097C6.68729 18.5075 5.50694 18.2256 4.29792 18.1988L4.2635 18.1981C3.25999 18.1617 2.40849 17.4913 2.1386 16.5211C1.86646 15.5402 2.26132 14.5154 3.1214 13.9707L7.19572 11.3913C8.47945 10.5785 10.0677 10.4765 11.4446 11.1185C12.8215 11.7606 13.7645 13.0429 13.9671 14.5489L14.6099 19.3277C14.7455 20.3371 14.214 21.2984 13.2874 21.7199Z" fill="#FEF9F9"/>
<path d="M4.72141 9.395C5.54872 9.45268 6.34539 9.13584 6.96485 8.50281C7.55409 7.90035 7.91268 7.07719 7.9743 6.18465C8.03553 5.29253 7.79336 4.42803 7.29259 3.75024C6.76615 3.03826 6.02075 2.61472 5.19438 2.55808C3.53247 2.44276 2.0737 3.88268 1.94231 5.76882C1.8395 7.27089 2.60962 8.60845 3.76712 9.14821C4.06268 9.28603 4.38352 9.37179 4.72141 9.395ZM3.34575 5.86564C3.42319 4.75419 4.20887 3.89987 5.09756 3.96152C5.25809 3.97253 5.41412 4.01357 5.56098 4.08206C5.78767 4.18776 5.99296 4.35885 6.16113 4.58657C6.4637 4.99576 6.60917 5.52908 6.57079 6.08799C6.53208 6.64716 6.31495 7.15525 5.95913 7.51885C5.63302 7.85207 5.22802 8.02001 4.81905 7.99154L4.81823 7.99156C3.93038 7.93071 3.26986 6.9768 3.34575 5.86564Z" fill="#FEF9F9"/>
<path d="M10.6413 8.64674C12.403 9.46825 14.5978 8.50366 15.5337 6.4965C16.4699 4.48884 15.7982 2.1872 14.0365 1.36569C12.2749 0.544262 10.0802 1.50926 9.144 3.51692C8.20804 5.52408 8.87973 7.82531 10.6413 8.64674ZM13.442 2.64068C14.5006 3.13431 14.8671 4.59743 14.2587 5.90196C13.6507 7.206 12.2944 7.86538 11.2358 7.37175C10.1772 6.87812 9.81091 5.41549 10.419 4.11146C11.0273 2.80692 12.3834 2.14705 13.442 2.64068Z" fill="#FEF9F9"/>
<path d="M15.7437 12.1137L15.7439 12.1137C15.973 12.33 16.2294 12.5019 16.5047 12.6303C17.7895 13.2294 19.4776 12.8782 20.6256 11.6638C21.2865 10.9649 21.6763 10.0817 21.7231 9.1772C21.7722 8.23053 21.4445 7.37386 20.8004 6.76479C20.1561 6.15605 19.2819 5.87691 18.3394 5.97926C17.4389 6.07718 16.5793 6.51599 15.9189 7.21518C14.5251 8.68985 14.4466 10.8873 15.7437 12.1137ZM16.9413 8.18148C17.3726 7.72497 17.923 7.43976 18.4915 7.37795C19.0174 7.32074 19.4943 7.46614 19.8341 7.78723C20.1736 8.1084 20.3455 8.57605 20.3181 9.10434C20.2885 9.67522 20.0348 10.241 19.6032 10.6974C18.7422 11.6083 17.4444 11.785 16.7102 11.0913C15.9768 10.3977 16.0804 9.09242 16.9413 8.18148Z" fill="#FEF9F9"/>
<path d="M22.6699 14.8269L22.6696 14.8262C21.8732 13.3622 19.8748 12.9039 18.2144 13.8049C16.5546 14.707 15.8507 16.6321 16.645 18.0959C16.9346 18.6299 17.3843 19.0304 17.9193 19.2798C18.8518 19.7147 20.0439 19.6911 21.1004 19.1182C22.7601 18.2161 23.4642 16.2911 22.6699 14.8269ZM20.4293 17.8818C19.4491 18.4133 18.3064 18.2084 17.8816 17.4249C17.4569 16.6424 17.9076 15.5729 18.8859 15.0411C19.5359 14.6884 20.2581 14.6603 20.7949 14.9107C21.0664 15.0373 21.2906 15.2351 21.4337 15.4984C21.8576 16.2812 21.4069 17.3503 20.4293 17.8818Z" fill="#FEF9F9"/>
</g>
<defs>
<clipPath id="clip0_45907_844">
<rect width="24" height="24" fill="white"/>
</clipPath>
</defs>
</svg>
